<?xml version="1.0" encoding="utf-8"?>
<!-- Generator: Adobe Illustrator 16.0.0, SVG Export Plug-In . SVG Version: 6.00 Build 0)  -->
<!DOCTYPE svg PUBLIC "-//W3C//DTD SVG 1.1//EN" "http://www.w3.org/Graphics/SVG/1.1/DTD/svg11.dtd">
<svg version="1.1" id="Layer_1" xmlns="http://www.w3.org/2000/svg" xmlns:xlink="http://www.w3.org/1999/xlink" x="0px" y="0px"
	 width="348px" height="127.353px" viewBox="-163 -35.353 348 127.353" enable-background="new -163 -35.353 348 127.353"
	 xml:space="preserve">
<g>
	<path fill="#53539F" d="M-78.507,17.166h0.771c0.425,1.997,1.112,3.451,2.062,4.356c0.949,0.908,2.036,1.362,3.262,1.362
		c1.19,0,2.039-0.312,2.54-0.934c0.5-0.624,0.752-1.279,0.752-1.968c0-0.801-0.262-1.453-0.786-1.959
		c-0.347-0.332-1.049-0.762-2.109-1.294l-1.702-0.862c-1.69-0.854-2.883-1.697-3.577-2.535c-0.695-0.836-1.041-1.869-1.041-3.096
		c0-1.305,0.459-2.526,1.379-3.657c0.92-1.132,2.33-1.699,4.23-1.699c0.966,0,1.901,0.148,2.805,0.444
		c0.904,0.296,1.419,0.444,1.548,0.444c0.291,0,0.492-0.083,0.602-0.255c0.11-0.168,0.202-0.393,0.269-0.672h0.797v5.823h-0.743
		c-0.35-1.349-0.964-2.512-1.845-3.486c-0.881-0.975-1.95-1.461-3.208-1.461c-0.886,0-1.585,0.247-2.1,0.737
		c-0.515,0.493-0.772,1.091-0.772,1.797c0,0.847,0.241,1.478,0.724,1.895c0.474,0.426,1.534,1.053,3.184,1.882l1.973,0.992
		c0.88,0.444,1.581,0.937,2.104,1.476c0.978,1.007,1.467,2.235,1.467,3.677c0,1.349-0.524,2.622-1.573,3.818
		c-1.051,1.196-2.729,1.793-5.041,1.793c-0.531,0-1.068-0.05-1.612-0.15c-0.543-0.102-1.08-0.255-1.611-0.463l-0.514-0.197
		c-0.119-0.036-0.235-0.062-0.345-0.083c-0.111-0.022-0.206-0.034-0.284-0.034c-0.274,0-0.461,0.08-0.565,0.243
		c-0.104,0.16-0.192,0.388-0.269,0.684h-0.77v-6.618H-78.507z"/>
	<path fill="#53539F" d="M-64.095,22.727c0.712-0.036,1.219-0.136,1.515-0.301c0.495-0.279,0.743-0.804,0.743-1.58V7.896
		c0-0.752-0.223-1.262-0.667-1.529c-0.269-0.155-0.801-0.271-1.594-0.349v-0.68h9.048v0.68c-0.782,0.043-1.328,0.146-1.633,0.31
		c-0.505,0.277-0.758,0.801-0.758,1.57v5.547h6.371V7.897c0-0.769-0.239-1.288-0.718-1.555c-0.296-0.165-0.849-0.271-1.658-0.325
		v-0.68h9.099v0.68c-0.783,0.06-1.319,0.172-1.606,0.335c-0.479,0.268-0.719,0.783-0.719,1.543v12.951
		c0,0.783,0.266,1.314,0.797,1.594c0.304,0.166,0.814,0.26,1.527,0.287v0.679h-9.099v-0.679c0.767-0.027,1.31-0.13,1.633-0.314
		c0.495-0.278,0.743-0.8,0.743-1.567v-6.162h-6.371v6.162c0,0.792,0.27,1.327,0.809,1.604c0.314,0.158,0.84,0.25,1.58,0.275v0.679
		h-9.044V22.727z"/>
	<path fill="#53539F" d="M-34.316,5.337v0.68c-1.036,0.036-1.727,0.194-2.075,0.481c-0.347,0.286-0.522,0.938-0.522,1.96v8.959
		c0,1.361,0.16,2.412,0.483,3.153c0.583,1.378,1.7,2.065,3.354,2.065c2.054,0,3.444-0.762,4.166-2.285
		c0.4-0.838,0.601-2.008,0.601-3.517V8.655c0-0.958-0.178-1.617-0.529-1.977c-0.352-0.362-1.041-0.582-2.068-0.66v-0.68h5.873v0.68
		c-0.854,0.165-1.417,0.367-1.688,0.607c-0.275,0.239-0.413,0.788-0.413,1.651v8.552c0,2.271-0.548,4.024-1.645,5.26
		c-1.096,1.235-2.82,1.854-5.168,1.854c-3.073,0-5.172-0.92-6.305-2.758c-0.601-0.975-0.901-2.233-0.901-3.774v-8.95
		c0-1.003-0.134-1.637-0.398-1.895c-0.266-0.261-0.864-0.44-1.794-0.546V5.342h9.029V5.337z"/>
	<path fill="#53539F" d="M-23.533,17.166h0.772c0.425,1.997,1.11,3.451,2.061,4.356c0.948,0.908,2.037,1.362,3.262,1.362
		c1.19,0,2.037-0.312,2.54-0.934c0.5-0.624,0.754-1.279,0.754-1.968c0-0.801-0.262-1.453-0.786-1.959
		c-0.347-0.332-1.049-0.762-2.11-1.294l-1.703-0.862c-1.688-0.854-2.881-1.697-3.577-2.535c-0.695-0.836-1.043-1.869-1.043-3.096
		c0-1.305,0.461-2.526,1.381-3.657c0.92-1.132,2.33-1.699,4.23-1.699c0.966,0,1.9,0.148,2.804,0.444s1.419,0.444,1.547,0.444
		c0.291,0,0.491-0.083,0.602-0.255c0.111-0.168,0.202-0.393,0.271-0.672h0.795v5.823h-0.744c-0.349-1.349-0.964-2.512-1.844-3.486
		c-0.881-0.975-1.951-1.461-3.211-1.461c-0.884,0-1.584,0.247-2.1,0.737c-0.512,0.493-0.771,1.091-0.771,1.797
		c0,0.847,0.242,1.478,0.722,1.895c0.474,0.426,1.534,1.053,3.185,1.882l1.971,0.992c0.879,0.444,1.583,0.937,2.105,1.476
		c0.978,1.007,1.466,2.235,1.466,3.677c0,1.349-0.524,2.622-1.573,3.818c-1.05,1.196-2.728,1.793-5.039,1.793
		c-0.533,0-1.07-0.05-1.611-0.15c-0.546-0.102-1.082-0.255-1.612-0.463l-0.516-0.197c-0.117-0.036-0.233-0.062-0.344-0.083
		c-0.11-0.022-0.204-0.034-0.283-0.034c-0.273,0-0.462,0.08-0.565,0.243c-0.101,0.16-0.191,0.388-0.268,0.684h-0.772v-6.618H-23.533
		z"/>
	<path fill="#53539F" d="M-9.12,22.727c0.713-0.036,1.219-0.136,1.515-0.301c0.496-0.279,0.743-0.804,0.743-1.58V7.896
		c0-0.752-0.221-1.262-0.665-1.529c-0.269-0.155-0.8-0.271-1.593-0.349v-0.68h9.045v0.68c-0.783,0.043-1.327,0.146-1.631,0.31
		c-0.504,0.277-0.757,0.801-0.757,1.57v5.547h6.37V7.897c0-0.769-0.24-1.288-0.716-1.555C2.895,6.177,2.34,6.07,1.531,6.017v-0.68
		h9.097v0.68c-0.782,0.06-1.316,0.172-1.604,0.335C8.544,6.62,8.308,7.135,8.308,7.896v12.951c0,0.783,0.264,1.314,0.794,1.594
		c0.305,0.166,0.813,0.26,1.525,0.287v0.679H1.531v-0.679c0.767-0.027,1.311-0.13,1.631-0.314c0.498-0.278,0.745-0.8,0.745-1.567
		v-6.162h-6.37v6.162c0,0.792,0.269,1.327,0.809,1.604c0.313,0.158,0.841,0.25,1.579,0.275v0.679H-9.12V22.727z"/>
	<path fill="#53539F" d="M11.621,22.727c0.906-0.042,1.524-0.214,1.855-0.51s0.494-0.939,0.494-1.932V8.457
		c0-1.029-0.194-1.7-0.586-2.012c-0.26-0.206-0.849-0.349-1.763-0.427v-0.68h8.604c1.784,0,3.229,0.186,4.336,0.561
		c2.139,0.757,3.209,2.119,3.209,4.087c0,1.453-0.559,2.597-1.68,3.433c-0.854,0.627-1.765,1.027-2.721,1.201l5.682,7.612
		c0.15,0.209,0.306,0.347,0.47,0.41c0.167,0.066,0.371,0.107,0.616,0.124v0.64h-5.58l-6.235-8.356h-0.018v5.235
		c0,0.939,0.157,1.574,0.47,1.9c0.313,0.327,0.94,0.507,1.88,0.542v0.679h-9.034V22.727z M22.062,13.451
		c0.752-0.465,1.129-1.542,1.129-3.229c0-1.036-0.145-1.854-0.432-2.454c-0.496-1.019-1.401-1.527-2.713-1.527
		c-0.714,0-1.184,0.09-1.403,0.267c-0.223,0.18-0.336,0.473-0.336,0.881v6.801C20.056,14.163,21.306,13.917,22.062,13.451z"/>
	<path fill="#53539F" d="M39.965,5.337v0.68c-1.036,0.036-1.727,0.194-2.077,0.481c-0.348,0.285-0.524,0.938-0.524,1.96v8.959
		c0,1.361,0.164,2.412,0.484,3.153c0.583,1.378,1.701,2.065,3.356,2.065c2.052,0,3.443-0.762,4.164-2.285
		c0.4-0.838,0.603-2.008,0.603-3.517V8.655c0-0.958-0.179-1.617-0.529-1.977c-0.352-0.362-1.041-0.582-2.068-0.66v-0.68h5.873v0.68
		c-0.855,0.165-1.417,0.367-1.688,0.607c-0.275,0.239-0.415,0.788-0.415,1.651v8.552c0,2.271-0.546,4.024-1.643,5.26
		c-1.097,1.235-2.82,1.854-5.169,1.854c-3.07,0-5.173-0.92-6.305-2.758c-0.599-0.975-0.901-2.233-0.901-3.774v-8.95
		c0-1.003-0.132-1.637-0.399-1.895c-0.266-0.258-0.861-0.44-1.794-0.546V5.342h9.034V5.337z"/>
	<path fill="#53539F" d="M50.749,17.166h0.771c0.425,1.997,1.114,3.451,2.061,4.356c0.949,0.906,2.037,1.362,3.262,1.362
		c1.191,0,2.037-0.312,2.54-0.934c0.501-0.624,0.754-1.279,0.754-1.968c0-0.801-0.261-1.453-0.785-1.959
		c-0.346-0.332-1.049-0.762-2.108-1.294l-1.706-0.862c-1.688-0.854-2.883-1.697-3.577-2.535c-0.694-0.836-1.041-1.869-1.041-3.096
		c0-1.305,0.461-2.526,1.379-3.657c0.92-1.132,2.331-1.699,4.231-1.699c0.966,0,1.9,0.148,2.802,0.444
		c0.905,0.296,1.42,0.444,1.549,0.444c0.289,0,0.491-0.083,0.602-0.255c0.111-0.168,0.2-0.393,0.268-0.672h0.797v5.823h-0.745
		c-0.348-1.349-0.962-2.512-1.843-3.486s-1.951-1.461-3.211-1.461c-0.882,0-1.584,0.247-2.099,0.737
		c-0.512,0.493-0.771,1.091-0.771,1.797c0,0.847,0.242,1.478,0.722,1.895c0.474,0.426,1.535,1.053,3.182,1.882l1.974,0.992
		c0.881,0.444,1.584,0.937,2.106,1.476c0.979,1.007,1.466,2.235,1.466,3.677c0,1.349-0.522,2.622-1.574,3.818
		c-1.048,1.196-2.729,1.793-5.041,1.793c-0.529,0-1.067-0.05-1.608-0.15c-0.547-0.102-1.081-0.255-1.612-0.463l-0.514-0.197
		c-0.12-0.036-0.237-0.062-0.346-0.083c-0.111-0.022-0.206-0.034-0.282-0.034c-0.273,0-0.465,0.08-0.565,0.243
		c-0.103,0.16-0.19,0.388-0.27,0.684h-0.77v-6.618H50.749z"/>
	<path fill="#53539F" d="M65.161,22.727c0.712-0.036,1.216-0.136,1.516-0.301c0.493-0.279,0.742-0.804,0.742-1.58V7.896
		c0-0.752-0.219-1.262-0.665-1.529c-0.27-0.155-0.801-0.271-1.592-0.349v-0.68h9.046v0.68c-0.783,0.043-1.328,0.146-1.631,0.31
		c-0.507,0.277-0.761,0.801-0.761,1.57v5.547h6.371V7.897c0-0.769-0.239-1.288-0.717-1.555c-0.294-0.165-0.85-0.271-1.657-0.325
		v-0.68h9.099v0.68c-0.781,0.06-1.317,0.172-1.606,0.335c-0.479,0.268-0.718,0.783-0.718,1.543v12.951
		c0,0.783,0.265,1.314,0.798,1.594c0.303,0.166,0.814,0.26,1.526,0.287v0.679h-9.099v-0.679c0.766-0.027,1.309-0.13,1.633-0.314
		c0.495-0.278,0.742-0.8,0.742-1.567v-6.162h-6.371v6.162c0,0.792,0.27,1.327,0.811,1.604c0.315,0.158,0.841,0.25,1.581,0.275v0.679
		h-9.046V22.727z"/>
	<path fill="#53539F" d="M85.956,22.727c0.641-0.042,1.159-0.335,1.553-0.875c0.254-0.338,0.612-1.087,1.083-2.245L94.53,4.973
		h0.745l5.967,14.047c0.67,1.575,1.17,2.592,1.5,3.048c0.331,0.458,0.801,0.677,1.41,0.66v0.679h-8.654v-0.679
		c0.87-0.036,1.444-0.11,1.717-0.223c0.274-0.112,0.41-0.401,0.41-0.861c0-0.209-0.069-0.526-0.209-0.952
		c-0.087-0.253-0.201-0.556-0.352-0.915l-0.679-1.618h-6.005c-0.39,1.062-0.643,1.752-0.756,2.075
		c-0.236,0.688-0.354,1.188-0.354,1.502c0,0.383,0.259,0.662,0.772,0.836c0.305,0.096,0.763,0.148,1.372,0.157v0.679h-5.457v-0.681
		H85.956z M95.992,17.098l-2.572-6.189h-0.223l-2.414,6.189H95.992z"/>
</g>
<g>
	<path fill="#010101" d="M-136.428,78.545c0.612,0.172,0.954,0.259,1.027,0.259c0.151,0,0.296-0.04,0.431-0.123
		c0.136-0.086,0.23-0.215,0.282-0.396h0.337l0.148,3.604h-0.367c-0.214-0.714-0.494-1.292-0.837-1.73
		c-0.658-0.825-1.544-1.237-2.656-1.237c-1.123,0-2.041,0.443-2.752,1.331c-0.712,0.888-1.069,2.109-1.069,3.666
		c0,1.431,0.374,2.572,1.123,3.429c0.75,0.853,1.699,1.277,2.849,1.277c0.831,0,1.595-0.194,2.296-0.595
		c0.403-0.223,0.843-0.562,1.325-1.015l0.297,0.296c-0.355,0.45-0.797,0.844-1.325,1.184c-0.898,0.572-1.871,0.861-2.921,0.861
		c-1.723,0-3.09-0.552-4.104-1.653c-0.934-1.021-1.403-2.291-1.403-3.815c0-1.562,0.494-2.872,1.481-3.933
		c1.039-1.112,2.392-1.669,4.056-1.669C-137.633,78.285-137.037,78.372-136.428,78.545z"/>
	<path fill="#010101" d="M-133.193,88.79c0.653-0.047,1.077-0.145,1.269-0.293c0.193-0.147,0.291-0.53,0.291-1.15v-7.133
		c0-0.592-0.096-0.972-0.291-1.142c-0.192-0.171-0.616-0.269-1.269-0.302v-0.298h4.747v0.3c-0.652,0.031-1.077,0.131-1.269,0.301
		c-0.192,0.169-0.291,0.552-0.291,1.141v7.137c0,0.617,0.096,1.001,0.291,1.148c0.194,0.148,0.617,0.247,1.269,0.293v0.297h-4.747
		V88.79z"/>
	<path fill="#010101" d="M-127.795,78.473h9.07l0.085,2.727h-0.383c-0.187-0.854-0.426-1.414-0.716-1.673
		c-0.289-0.26-0.899-0.389-1.829-0.389h-0.893v8.209c0,0.618,0.097,1.001,0.291,1.148c0.194,0.148,0.617,0.246,1.269,0.293v0.298
		h-4.677v-0.298c0.68-0.053,1.102-0.164,1.27-0.334c0.167-0.173,0.25-0.604,0.25-1.295v-8.021h-0.9
		c-0.888,0-1.492,0.129-1.814,0.385c-0.32,0.256-0.561,0.814-0.723,1.673h-0.393L-127.795,78.473z"/>
	<path fill="#010101" d="M-118.051,88.79c0.652-0.047,1.076-0.145,1.269-0.293c0.192-0.147,0.291-0.53,0.291-1.15v-7.133
		c0-0.592-0.096-0.972-0.291-1.142c-0.192-0.171-0.616-0.269-1.269-0.302v-0.298h4.747v0.3c-0.653,0.031-1.077,0.131-1.269,0.301
		c-0.193,0.169-0.291,0.552-0.291,1.141v7.137c0,0.617,0.096,1.001,0.291,1.148c0.194,0.148,0.616,0.247,1.269,0.293v0.297h-4.747
		V88.79z"/>
	<path fill="#010101" d="M-112.857,88.906l7.033-9.82h-3.696c-0.929,0-1.59,0.233-1.983,0.696c-0.235,0.278-0.42,0.757-0.556,1.436
		h-0.415l0.321-2.743h8.466v0.183l-7.033,9.821h4.162c0.942,0,1.633-0.22,2.065-0.665c0.269-0.282,0.512-0.796,0.728-1.542h0.376
		l-0.4,2.819h-9.07v-0.185H-112.857z"/>
	<path fill="#010101" d="M-102.988,88.79c0.59-0.062,0.971-0.169,1.148-0.315c0.174-0.149,0.262-0.525,0.262-1.128v-7.133
		c0-0.569-0.086-0.941-0.259-1.117c-0.173-0.176-0.556-0.282-1.151-0.326v-0.298h8.521l0.056,2.296h-0.408
		c-0.136-0.704-0.339-1.164-0.612-1.373c-0.271-0.209-0.876-0.312-1.818-0.312h-2.183c-0.236,0-0.382,0.038-0.437,0.113
		c-0.056,0.075-0.082,0.216-0.082,0.425V83.2h2.475c0.685,0,1.119-0.101,1.308-0.303c0.187-0.201,0.338-0.612,0.455-1.23h0.376
		v3.706h-0.376c-0.12-0.623-0.275-1.032-0.462-1.232c-0.188-0.202-0.623-0.303-1.299-0.303h-2.476v3.972
		c0,0.32,0.101,0.509,0.301,0.564c0.201,0.058,0.803,0.087,1.809,0.087c1.088,0,1.891-0.118,2.408-0.358
		c0.517-0.237,0.982-0.812,1.396-1.727h0.445l-0.729,2.712h-8.671V88.79H-102.988z"/>
	<path fill="#010101" d="M-93.19,88.79c0.663-0.068,1.089-0.218,1.276-0.451c0.188-0.233,0.282-0.77,0.282-1.615v-7.067
		l-0.219-0.261c-0.236-0.274-0.435-0.445-0.599-0.512c-0.166-0.066-0.412-0.103-0.741-0.111v-0.3h2.737l6.192,7.677v-5.33
		c0-0.875-0.13-1.448-0.393-1.713c-0.172-0.172-0.554-0.281-1.144-0.334v-0.3h3.768v0.3c-0.611,0.062-1.017,0.211-1.223,0.445
		c-0.205,0.235-0.305,0.773-0.305,1.614v8.443h-0.274l-7.097-8.799v6.245c0,0.878,0.129,1.446,0.384,1.715
		c0.167,0.174,0.54,0.289,1.119,0.352v0.298h-3.768V88.79H-93.19z"/>
	<path fill="#010101" d="M-78.602,81.188c-0.378,0.456-0.791,0.781-1.24,0.981l-0.148-0.313c0.366-0.208,0.677-0.468,0.936-0.776
		c0.26-0.306,0.389-0.619,0.389-0.939c0-0.073-0.022-0.124-0.063-0.156c-0.041-0.031-0.09-0.046-0.148-0.046
		c-0.308,0.037-0.488,0.056-0.54,0.056c-0.203,0-0.399-0.073-0.587-0.212c-0.189-0.143-0.282-0.35-0.282-0.629
		c0-0.203,0.075-0.405,0.226-0.607c0.152-0.198,0.4-0.301,0.744-0.301c0.36,0,0.665,0.138,0.913,0.412
		c0.248,0.273,0.371,0.616,0.371,1.022C-78.033,80.231-78.224,80.736-78.602,81.188z"/>
	<path fill="#010101" d="M-75.41,85.86c0.271,0.721,0.59,1.297,0.954,1.724c0.636,0.748,1.426,1.122,2.371,1.122
		c0.512,0,0.954-0.162,1.326-0.487c0.373-0.322,0.56-0.774,0.56-1.354c0-0.521-0.187-0.977-0.563-1.362
		c-0.245-0.247-0.762-0.613-1.547-1.105l-1.369-0.854c-0.412-0.26-0.742-0.525-0.986-0.79c-0.454-0.505-0.68-1.065-0.68-1.677
		c0-0.808,0.269-1.481,0.808-2.019c0.538-0.538,1.251-0.808,2.138-0.808c0.366,0,0.806,0.09,1.319,0.27
		c0.515,0.181,0.81,0.268,0.883,0.268c0.197,0,0.335-0.045,0.412-0.139c0.075-0.095,0.133-0.229,0.176-0.4h0.329l0.354,3.415h-0.383
		c-0.26-1.029-0.682-1.748-1.257-2.155c-0.578-0.407-1.148-0.609-1.711-0.609c-0.439,0-0.822,0.129-1.148,0.387
		c-0.327,0.261-0.488,0.618-0.488,1.076c0,0.412,0.125,0.766,0.374,1.058c0.249,0.3,0.638,0.609,1.166,0.932l1.41,0.87
		c0.883,0.543,1.505,1.041,1.864,1.495c0.357,0.46,0.535,1.003,0.535,1.629c0,0.843-0.317,1.544-0.952,2.11
		c-0.634,0.562-1.445,0.846-2.432,0.846c-0.496,0-1.015-0.094-1.556-0.282c-0.541-0.188-0.851-0.282-0.929-0.282
		c-0.187,0-0.316,0.058-0.38,0.171c-0.065,0.117-0.108,0.24-0.13,0.369h-0.353l-0.477-3.415H-75.41z"/>
	<path fill="#010101" d="M-55.789,78.545c0.611,0.172,0.953,0.259,1.026,0.259c0.152,0,0.296-0.04,0.432-0.123
		c0.136-0.086,0.23-0.215,0.282-0.396h0.337l0.148,3.604h-0.369c-0.214-0.714-0.495-1.292-0.838-1.73
		c-0.658-0.825-1.543-1.237-2.655-1.237c-1.124,0-2.041,0.443-2.752,1.331c-0.713,0.888-1.069,2.109-1.069,3.666
		c0,1.431,0.374,2.572,1.123,3.429c0.749,0.853,1.699,1.277,2.849,1.277c0.83,0,1.595-0.194,2.296-0.595
		c0.402-0.223,0.842-0.562,1.324-1.015l0.297,0.296c-0.354,0.45-0.796,0.844-1.324,1.184c-0.899,0.572-1.872,0.861-2.921,0.861
		c-1.724,0-3.09-0.552-4.105-1.653c-0.934-1.021-1.402-2.291-1.402-3.815c0-1.562,0.494-2.872,1.48-3.933
		c1.039-1.112,2.393-1.669,4.057-1.669C-56.996,78.285-56.4,78.372-55.789,78.545z"/>
	<path fill="#010101" d="M-50.722,79.664c0.988-0.943,2.202-1.417,3.641-1.417c1.448,0,2.664,0.477,3.651,1.426
		c1.07,1.028,1.605,2.399,1.605,4.112c0,1.739-0.554,3.123-1.661,4.15c-0.993,0.922-2.191,1.378-3.596,1.378
		c-1.504,0-2.751-0.508-3.745-1.524c-1.007-1.041-1.511-2.374-1.511-4.004C-52.334,82.072-51.796,80.697-50.722,79.664z
		 M-49.521,87.524c0.664,0.808,1.479,1.211,2.446,1.211c0.947,0,1.756-0.393,2.428-1.18c0.672-0.783,1.007-2.042,1.007-3.771
		c0-1.747-0.34-3.011-1.02-3.791c-0.679-0.777-1.484-1.166-2.415-1.166c-0.961,0-1.774,0.404-2.441,1.21
		c-0.667,0.808-1,2.058-1,3.751C-50.516,85.472-50.185,86.719-49.521,87.524z"/>
	<path fill="#010101" d="M-40.599,84.969h3.962v1.001h-3.962V84.969z"/>
	<path fill="#010101" d="M-33.794,79.664c0.987-0.943,2.199-1.417,3.641-1.417c1.447,0,2.663,0.477,3.653,1.426
		c1.069,1.028,1.604,2.399,1.604,4.112c0,1.739-0.555,3.123-1.662,4.15c-0.993,0.922-2.19,1.378-3.597,1.378
		c-1.504,0-2.75-0.508-3.743-1.524c-1.008-1.041-1.512-2.374-1.512-4.004C-35.407,82.072-34.871,80.697-33.794,79.664z
		 M-32.595,87.524c0.663,0.808,1.479,1.211,2.445,1.211c0.947,0,1.756-0.393,2.428-1.18c0.672-0.783,1.007-2.042,1.007-3.771
		c0-1.747-0.34-3.011-1.02-3.791c-0.679-0.777-1.483-1.166-2.415-1.166c-0.961,0-1.775,0.404-2.439,1.21
		c-0.668,0.808-1.001,2.058-1.001,3.751C-33.59,85.472-33.257,86.719-32.595,87.524z"/>
	<path fill="#010101" d="M-24.042,88.79c0.613-0.058,0.992-0.18,1.146-0.362c0.149-0.187,0.226-0.607,0.226-1.268v-6.946
		c0-0.558-0.086-0.928-0.255-1.104c-0.171-0.18-0.544-0.293-1.118-0.336v-0.302h4.23c1.357,0,2.398,0.265,3.119,0.791
		c0.72,0.529,1.078,1.224,1.078,2.085c0,1.09-0.399,1.884-1.198,2.374c-0.798,0.491-1.8,0.734-3.001,0.734
		c-0.171,0-0.394-0.003-0.662-0.01c-0.267-0.011-0.469-0.015-0.599-0.015v2.914c0,0.603,0.092,0.981,0.278,1.139
		c0.185,0.156,0.599,0.258,1.241,0.305v0.298h-4.49V88.79H-24.042z M-18.629,79.368c-0.455-0.199-1.029-0.3-1.724-0.3
		c-0.33,0-0.533,0.035-0.607,0.101c-0.075,0.063-0.112,0.209-0.112,0.432v4.185c0.286,0.028,0.475,0.042,0.563,0.046
		c0.089,0.007,0.175,0.009,0.258,0.009c0.738,0,1.315-0.104,1.742-0.313c0.766-0.382,1.151-1.092,1.151-2.14
		C-17.36,80.407-17.785,79.733-18.629,79.368z"/>
	<path fill="#010101" d="M-15.198,88.79c0.59-0.062,0.973-0.169,1.148-0.315c0.175-0.149,0.262-0.525,0.262-1.128v-7.133
		c0-0.569-0.085-0.941-0.26-1.117c-0.171-0.176-0.556-0.282-1.151-0.326v-0.298h8.521l0.054,2.296h-0.408
		c-0.136-0.704-0.336-1.164-0.61-1.373c-0.271-0.209-0.876-0.312-1.818-0.312h-2.184c-0.236,0-0.382,0.038-0.437,0.113
		c-0.056,0.075-0.082,0.216-0.082,0.425V83.2h2.475c0.685,0,1.12-0.101,1.307-0.303c0.187-0.201,0.341-0.612,0.457-1.23h0.376v3.706
		h-0.376c-0.122-0.623-0.275-1.032-0.464-1.232c-0.188-0.202-0.623-0.303-1.3-0.303h-2.475v3.972c0,0.32,0.101,0.509,0.301,0.564
		c0.201,0.058,0.803,0.087,1.81,0.087c1.086,0,1.892-0.118,2.408-0.358c0.517-0.237,0.984-0.812,1.395-1.727h0.447l-0.729,2.712
		h-8.669V88.79H-15.198z"/>
	<path fill="#010101" d="M-5.4,88.79c0.616-0.058,1.002-0.18,1.151-0.358c0.151-0.184,0.227-0.606,0.227-1.271v-6.946
		c0-0.562-0.083-0.933-0.255-1.107c-0.171-0.178-0.544-0.289-1.124-0.334v-0.3h4.441c0.925,0,1.695,0.119,2.312,0.354
		c1.169,0.44,1.753,1.259,1.753,2.446c0,0.8-0.26,1.413-0.78,1.838c-0.521,0.428-1.227,0.71-2.12,0.846l3.307,4.073
		c0.201,0.247,0.408,0.428,0.609,0.543c0.205,0.115,0.467,0.185,0.782,0.218v0.298H2.321l-4.012-4.943l-0.706,0.04v3.159
		c0,0.595,0.091,0.971,0.271,1.128c0.18,0.161,0.572,0.264,1.179,0.318v0.298H-5.4V88.79z M0.082,83.229
		c0.854-0.349,1.279-1.006,1.279-1.971c0-0.928-0.381-1.56-1.145-1.897c-0.408-0.184-0.948-0.271-1.621-0.271
		c-0.456,0-0.732,0.032-0.835,0.098c-0.102,0.062-0.153,0.216-0.153,0.456v3.949C-1.237,83.549-0.414,83.427,0.082,83.229z"/>
	<path fill="#010101" d="M5.356,89.088V88.79c0.413-0.047,0.721-0.202,0.929-0.465c0.207-0.265,0.559-0.989,1.061-2.169l3.342-7.871
		h0.321l3.997,9.095c0.265,0.603,0.48,0.975,0.637,1.117s0.426,0.24,0.802,0.293v0.298h-4.08V88.79
		c0.471-0.04,0.774-0.093,0.91-0.151c0.135-0.062,0.201-0.207,0.201-0.44c0-0.079-0.025-0.216-0.077-0.413
		c-0.051-0.198-0.125-0.407-0.219-0.625l-0.644-1.544H8.31c-0.417,1.052-0.665,1.69-0.747,1.922
		c-0.082,0.231-0.121,0.414-0.121,0.55c0,0.271,0.11,0.46,0.329,0.561c0.136,0.063,0.391,0.111,0.767,0.142v0.298H5.356z
		 M12.265,84.969l-1.838-4.419L8.58,84.969H12.265z"/>
	<path fill="#010101" d="M15.24,78.473h9.07l0.085,2.727h-0.383c-0.187-0.854-0.426-1.414-0.715-1.673
		c-0.289-0.26-0.9-0.389-1.828-0.389h-0.895v8.209c0,0.618,0.098,1.001,0.289,1.148c0.193,0.148,0.618,0.246,1.271,0.293v0.298
		h-4.675v-0.298c0.679-0.053,1.1-0.164,1.268-0.334c0.167-0.173,0.25-0.604,0.25-1.295v-8.021h-0.9
		c-0.888,0-1.492,0.129-1.815,0.385c-0.32,0.256-0.561,0.814-0.722,1.673h-0.392L15.24,78.473z"/>
	<path fill="#010101" d="M24.984,88.79c0.653-0.047,1.078-0.145,1.269-0.293c0.191-0.147,0.291-0.53,0.291-1.15v-7.133
		c0-0.592-0.099-0.972-0.291-1.142c-0.191-0.171-0.616-0.269-1.269-0.302v-0.298h4.747v0.3c-0.653,0.031-1.076,0.131-1.269,0.301
		c-0.193,0.169-0.289,0.552-0.289,1.141v7.137c0,0.617,0.096,1.001,0.289,1.148c0.193,0.148,0.616,0.247,1.269,0.293v0.297h-4.747
		V88.79z"/>
	<path fill="#010101" d="M34.594,78.473v0.275c-0.402,0.005-0.675,0.031-0.821,0.08c-0.256,0.084-0.383,0.258-0.383,0.517
		c0,0.131,0.045,0.319,0.136,0.556c0.094,0.24,0.261,0.636,0.512,1.188l2.51,5.586l2.28-6.047c0.101-0.268,0.177-0.494,0.229-0.681
		c0.051-0.187,0.077-0.336,0.077-0.452c0-0.315-0.132-0.527-0.4-0.638c-0.155-0.064-0.414-0.101-0.776-0.109v-0.275h3.285v0.275
		c-0.339,0.045-0.592,0.14-0.752,0.275C40.24,79.225,40,79.636,39.76,80.25l-3.553,9.021h-0.24L32,80.454
		c-0.334-0.745-0.603-1.212-0.804-1.395c-0.199-0.183-0.493-0.287-0.879-0.314v-0.272H34.594z"/>
	<path fill="#010101" d="M41.833,88.79c0.588-0.062,0.971-0.169,1.147-0.315c0.174-0.149,0.263-0.525,0.263-1.128v-7.133
		c0-0.569-0.089-0.941-0.259-1.117c-0.174-0.176-0.557-0.282-1.152-0.326v-0.298h8.522l0.052,2.296h-0.407
		c-0.136-0.704-0.34-1.164-0.613-1.373c-0.27-0.209-0.875-0.312-1.817-0.312h-2.183c-0.237,0-0.383,0.038-0.437,0.113
		c-0.056,0.075-0.082,0.216-0.082,0.425V83.2h2.475c0.682,0,1.119-0.101,1.305-0.303c0.188-0.201,0.339-0.612,0.456-1.23h0.376
		v3.706h-0.376c-0.12-0.623-0.275-1.032-0.463-1.232c-0.188-0.202-0.622-0.303-1.3-0.303h-2.477v3.972
		c0,0.32,0.103,0.509,0.303,0.564c0.198,0.058,0.804,0.087,1.809,0.087c1.084,0,1.892-0.118,2.411-0.358
		c0.515-0.237,0.981-0.812,1.393-1.727h0.449l-0.731,2.712h-8.668V88.79H41.833z"/>
	<path fill="#010101" d="M55.72,88.79c0.628-0.068,1.018-0.183,1.175-0.347c0.157-0.162,0.235-0.592,0.235-1.283v-6.946
		c0-0.574-0.089-0.947-0.26-1.121c-0.179-0.172-0.559-0.278-1.15-0.32v-0.3h4.449v0.3c-0.587,0.042-0.968,0.148-1.147,0.32
		c-0.177,0.174-0.263,0.547-0.263,1.121v3.126h4.872v-3.126c0-0.574-0.087-0.947-0.261-1.121c-0.17-0.172-0.557-0.278-1.152-0.32
		v-0.3h4.449v0.3c-0.588,0.042-0.973,0.148-1.147,0.32c-0.176,0.174-0.263,0.547-0.263,1.121v7.137c0,0.581,0.087,0.953,0.263,1.117
		c0.174,0.164,0.555,0.27,1.147,0.324v0.297h-4.449v-0.297c0.632-0.063,1.025-0.178,1.179-0.342
		c0.155-0.167,0.231-0.595,0.231-1.288v-3.117h-4.87v3.306c0,0.581,0.087,0.953,0.264,1.121c0.178,0.167,0.557,0.271,1.146,0.32
		v0.297h-4.449V88.79H55.72z"/>
	<path fill="#010101" d="M69.135,79.664c0.99-0.943,2.202-1.417,3.645-1.417c1.446,0,2.663,0.477,3.648,1.426
		c1.072,1.028,1.605,2.399,1.605,4.112c0,1.739-0.553,3.123-1.661,4.15c-0.992,0.922-2.189,1.378-3.596,1.378
		c-1.504,0-2.75-0.508-3.744-1.524c-1.008-1.041-1.511-2.374-1.511-4.004C67.524,82.072,68.059,80.697,69.135,79.664z
		 M70.336,87.524c0.665,0.808,1.479,1.211,2.447,1.211c0.947,0,1.754-0.393,2.426-1.18c0.672-0.783,1.006-2.042,1.006-3.771
		c0-1.747-0.337-3.011-1.018-3.791c-0.681-0.777-1.485-1.166-2.414-1.166c-0.964,0-1.775,0.404-2.444,1.21
		c-0.665,0.808-0.999,2.058-0.999,3.751C69.34,85.472,69.671,86.719,70.336,87.524z"/>
	<path fill="#010101" d="M79.662,85.86c0.271,0.721,0.59,1.297,0.954,1.724c0.637,0.748,1.427,1.122,2.371,1.122
		c0.512,0,0.954-0.162,1.326-0.487c0.373-0.322,0.558-0.774,0.558-1.354c0-0.521-0.188-0.977-0.561-1.362
		c-0.247-0.247-0.763-0.613-1.549-1.105l-1.369-0.854c-0.411-0.26-0.741-0.525-0.985-0.79c-0.456-0.505-0.684-1.065-0.684-1.677
		c0-0.808,0.27-1.481,0.808-2.019c0.538-0.538,1.25-0.808,2.135-0.808c0.366,0,0.808,0.09,1.319,0.27
		c0.516,0.181,0.808,0.268,0.881,0.268c0.198,0,0.338-0.045,0.414-0.139c0.073-0.095,0.133-0.229,0.175-0.4h0.332l0.35,3.415h-0.383
		c-0.259-1.029-0.682-1.748-1.257-2.155c-0.577-0.407-1.148-0.609-1.713-0.609c-0.438,0-0.821,0.129-1.148,0.387
		c-0.327,0.261-0.487,0.618-0.487,1.076c0,0.412,0.125,0.766,0.376,1.058c0.247,0.3,0.637,0.609,1.163,0.932l1.409,0.87
		c0.881,0.543,1.504,1.041,1.866,1.495c0.355,0.46,0.533,1.003,0.533,1.629c0,0.843-0.317,1.544-0.951,2.11
		c-0.632,0.563-1.444,0.846-2.43,0.846c-0.496,0-1.015-0.094-1.554-0.282c-0.542-0.188-0.851-0.282-0.928-0.282
		c-0.188,0-0.315,0.058-0.381,0.171c-0.064,0.117-0.108,0.24-0.127,0.369h-0.352l-0.48-3.415H79.662z"/>
	<path fill="#010101" d="M87.81,88.79c0.613-0.058,0.994-0.18,1.147-0.362c0.149-0.187,0.227-0.607,0.227-1.268v-6.946
		c0-0.558-0.084-0.928-0.256-1.104c-0.173-0.178-0.545-0.293-1.118-0.336v-0.302h4.229c1.358,0,2.399,0.265,3.12,0.791
		c0.719,0.529,1.077,1.224,1.077,2.085c0,1.09-0.397,1.884-1.197,2.374c-0.798,0.491-1.8,0.734-3.001,0.734
		c-0.171,0-0.391-0.003-0.662-0.01c-0.268-0.011-0.466-0.015-0.599-0.015v2.914c0,0.603,0.094,0.981,0.278,1.139
		c0.185,0.156,0.6,0.258,1.243,0.305v0.298h-4.492V88.79H87.81z M93.224,79.368c-0.453-0.199-1.027-0.3-1.726-0.3
		c-0.327,0-0.529,0.035-0.605,0.101c-0.077,0.063-0.113,0.209-0.113,0.432v4.185c0.289,0.028,0.479,0.042,0.562,0.046
		c0.092,0.007,0.176,0.009,0.259,0.009c0.738,0,1.314-0.104,1.743-0.313c0.766-0.382,1.15-1.092,1.15-2.14
		C94.494,80.407,94.067,79.733,93.224,79.368z"/>
	<path fill="#010101" d="M96.73,88.79c0.651-0.047,1.076-0.145,1.271-0.293c0.191-0.147,0.289-0.53,0.289-1.15v-7.133
		c0-0.592-0.098-0.972-0.289-1.142c-0.194-0.171-0.619-0.269-1.271-0.302v-0.298h4.748v0.3c-0.654,0.031-1.079,0.131-1.271,0.301
		c-0.194,0.169-0.289,0.552-0.289,1.141v7.137c0,0.617,0.095,1.001,0.289,1.148c0.191,0.148,0.616,0.247,1.271,0.293v0.297H96.73
		V88.79z"/>
	<path fill="#010101" d="M102.128,78.473h9.072l0.084,2.727h-0.383c-0.187-0.854-0.425-1.414-0.718-1.673
		c-0.287-0.26-0.898-0.389-1.826-0.389h-0.895v8.209c0,0.618,0.098,1.001,0.293,1.148c0.189,0.148,0.616,0.246,1.267,0.293v0.298
		h-4.675v-0.298c0.679-0.053,1.1-0.164,1.267-0.334c0.167-0.173,0.251-0.604,0.251-1.295v-8.021h-0.898
		c-0.888,0-1.493,0.129-1.813,0.385c-0.322,0.256-0.563,0.814-0.724,1.673h-0.394L102.128,78.473z"/>
	<path fill="#010101" d="M110.572,89.088V88.79c0.414-0.047,0.724-0.202,0.929-0.465c0.206-0.265,0.561-0.989,1.059-2.169
		l3.342-7.871h0.32l3.997,9.095c0.268,0.603,0.481,0.975,0.641,1.117c0.156,0.143,0.424,0.24,0.8,0.293v0.298h-4.079V88.79
		c0.47-0.04,0.772-0.093,0.908-0.151c0.136-0.062,0.202-0.207,0.202-0.44c0-0.079-0.024-0.216-0.077-0.413
		c-0.052-0.198-0.125-0.407-0.219-0.625l-0.645-1.544h-4.226c-0.418,1.052-0.665,1.69-0.745,1.922
		c-0.084,0.231-0.122,0.414-0.122,0.55c0,0.271,0.109,0.46,0.329,0.561c0.136,0.063,0.39,0.111,0.768,0.142v0.298H110.572z
		 M117.482,84.969l-1.837-4.419l-1.849,4.419H117.482z"/>
	<path fill="#010101" d="M122.102,88.79c0.589-0.062,0.974-0.169,1.15-0.315c0.176-0.149,0.26-0.525,0.26-1.128v-7.133
		c0-0.569-0.087-0.941-0.258-1.117c-0.174-0.176-0.557-0.282-1.152-0.326v-0.298h4.525v0.3c-0.588,0.031-0.984,0.127-1.184,0.289
		c-0.2,0.162-0.303,0.508-0.303,1.041v7.707c0,0.18,0.033,0.318,0.093,0.418c0.058,0.104,0.189,0.167,0.396,0.193
		c0.118,0.014,0.249,0.026,0.381,0.033c0.131,0.003,0.384,0.007,0.749,0.007c1.427,0,2.392-0.118,2.893-0.352
		c0.503-0.237,0.989-0.836,1.457-1.804h0.409l-0.783,2.782h-8.63V88.79H122.102z"/>
	<path fill="#010101" d="M135.325,88.79c0.587-0.062,0.972-0.169,1.148-0.315c0.176-0.149,0.26-0.525,0.26-1.128v-7.133
		c0-0.569-0.087-0.941-0.258-1.117c-0.174-0.176-0.555-0.282-1.15-0.326v-0.298h4.524v0.3c-0.587,0.031-0.985,0.127-1.183,0.289
		c-0.202,0.162-0.305,0.508-0.305,1.041v7.707c0,0.18,0.033,0.318,0.093,0.418c0.058,0.104,0.189,0.167,0.396,0.193
		c0.118,0.014,0.249,0.026,0.382,0.033c0.13,0.003,0.383,0.007,0.748,0.007c1.428,0,2.392-0.118,2.893-0.352
		c0.503-0.237,0.989-0.836,1.457-1.804h0.409l-0.783,2.782h-8.63V88.79H135.325z"/>
	<path fill="#010101" d="M143.783,78.473h9.07l0.087,2.727h-0.383c-0.187-0.854-0.429-1.414-0.718-1.673
		c-0.288-0.26-0.901-0.389-1.825-0.389h-0.895v8.209c0,0.618,0.097,1.001,0.288,1.148c0.193,0.148,0.616,0.246,1.271,0.293v0.298
		h-4.676v-0.298c0.676-0.053,1.101-0.164,1.268-0.334c0.167-0.173,0.25-0.604,0.25-1.295v-8.021h-0.901
		c-0.888,0-1.49,0.129-1.813,0.385c-0.322,0.256-0.561,0.814-0.725,1.673h-0.39L143.783,78.473z"/>
	<path fill="#010101" d="M153.525,88.79c0.583-0.062,0.968-0.169,1.146-0.315c0.179-0.149,0.265-0.525,0.265-1.128v-7.133
		c0-0.585-0.086-0.961-0.26-1.13c-0.171-0.167-0.556-0.27-1.15-0.313v-0.298h4.323c1.457,0,2.693,0.242,3.697,0.721
		c1.819,0.863,2.724,2.404,2.724,4.623c0,0.798-0.159,1.559-0.485,2.277c-0.325,0.721-0.818,1.33-1.476,1.826
		c-0.416,0.314-0.854,0.552-1.301,0.712c-0.817,0.303-1.827,0.454-3.021,0.454h-4.459V88.79H153.525z M156.758,88.367
		c0.125,0.083,0.39,0.125,0.793,0.125c1.254,0,2.284-0.251,3.096-0.745c1.242-0.763,1.862-2.066,1.862-3.911
		c0-1.646-0.512-2.884-1.535-3.716c-0.878-0.711-2.04-1.065-3.485-1.065c-0.361,0-0.605,0.038-0.73,0.114
		c-0.129,0.08-0.193,0.253-0.193,0.52v8.159C156.562,88.111,156.629,88.283,156.758,88.367z"/>
	<path fill="#010101" d="M166.832,89.013c-0.17-0.176-0.258-0.385-0.258-0.632c0-0.245,0.088-0.453,0.264-0.627
		s0.383-0.261,0.632-0.261c0.243,0,0.452,0.087,0.626,0.261c0.171,0.174,0.258,0.382,0.258,0.627c0,0.247-0.084,0.456-0.254,0.632
		c-0.171,0.176-0.38,0.263-0.63,0.263C167.217,89.275,167.006,89.188,166.832,89.013z"/>
</g>
<path fill="#E93F34" stroke="#E93F34" stroke-miterlimit="10" d="M32.261-26.353c0,7.395,0,14.304,0,22.004
	c27.805,0,54.872,0,82.345,0c0,13.628,0,26.438,0,40.097c-27.289,0-54.363,0-82.15,0c0,7.737,0,14.646,0,22.094
	c-13.528,0-26.346,0-39.919,0c0-6.871,0-13.791,0-21.645c-27.76,0-54.8,0-82.432,0c0-13.725,0-26.535,0-40.209
	c26.777,0,53.816,0,81.91,0c0-7.895,0-14.965,0-22.341C5.725-26.353,18.375-26.353,32.261-26.353z M-6.322,56.287
	c12.598,0,24.491,0,37.168,0c0-7.488,0-14.392,0-22.167c27.836,0,54.903,0,82.056,0c0-12.625,0-24.358,0-36.942
	c-27.518,0-54.598,0-82.206,0c0-6.308-0.099-11.762,0.037-17.213c0.083-3.412-0.834-5.385-4.752-5.317
	c-9.211,0.157-18.429,0.123-27.643,0.075c-3.302-0.018-4.733,1.312-4.628,4.728c0.177,5.653,0.046,11.313,0.046,17.93
	c-27.867,0-55.124,0-82.477,0c0,12.707,0,24.431,0,36.939c27.542,0,54.625,0,82.398,0C-6.322,42.021-6.322,48.949-6.322,56.287z"/>
</svg>
